<svg aria-hidden="true" style="position: absolute; width: 0; height: 0; overflow: hidden;" version="1.1" xmlns="http://www.w3.org/2000/svg" xmlns:xlink="http://www.w3.org/1999/xlink">
<defs>
<symbol id="icon-align-justify" viewBox="0 0 24 24">
<path d="M21 9h-18c-0.552 0-1 0.448-1 1s0.448 1 1 1h18c0.552 0 1-0.448 1-1s-0.448-1-1-1zM21 5h-18c-0.552 0-1 0.448-1 1s0.448 1 1 1h18c0.552 0 1-0.448 1-1s-0.448-1-1-1zM21 13h-18c-0.552 0-1 0.448-1 1s0.448 1 1 1h18c0.552 0 1-0.448 1-1s-0.448-1-1-1zM21 17h-18c-0.552 0-1 0.448-1 1s0.448 1 1 1h18c0.552 0 1-0.448 1-1s-0.448-1-1-1z"></path>
</symbol>
<symbol id="icon-chevron-down" viewBox="0 0 24 24">
<path d="M5.293 9.707l6 6c0.391 0.391 1.024 0.391 1.414 0l6-6c0.391-0.391 0.391-1.024 0-1.414s-1.024-0.391-1.414 0l-5.293 5.293-5.293-5.293c-0.391-0.391-1.024-0.391-1.414 0s-0.391 1.024 0 1.414z"></path>
</symbol>
<symbol id="icon-heart" viewBox="0 0 24 24">
<path d="M20.133 5.317c0.88 0.881 1.319 2.031 1.319 3.184s-0.44 2.303-1.319 3.182l-8.133 8.133-8.133-8.133c-0.879-0.879-1.318-2.029-1.318-3.183s0.439-2.304 1.318-3.183 2.029-1.318 3.183-1.318 2.304 0.439 3.183 1.318l1.060 1.060c0.391 0.391 1.024 0.391 1.414 0l1.062-1.062c0.879-0.879 2.029-1.318 3.182-1.317s2.303 0.44 3.182 1.319zM21.547 3.903c-1.269-1.269-2.934-1.904-4.596-1.905s-3.327 0.634-4.597 1.903l-0.354 0.355-0.353-0.353c-1.269-1.269-2.935-1.904-4.597-1.904s-3.328 0.635-4.597 1.904-1.904 2.935-1.904 4.597 0.635 3.328 1.904 4.597l8.84 8.84c0.391 0.391 1.024 0.391 1.414 0l8.84-8.84c1.269-1.269 1.904-2.934 1.905-4.596s-0.634-3.327-1.905-4.598z"></path>
</symbol>
<symbol id="icon-home" viewBox="0 0 24 24">
<path d="M2.386 8.211c-0.236 0.184-0.386 0.469-0.386 0.789v11c0 0.828 0.337 1.58 0.879 2.121s1.293 0.879 2.121 0.879h14c0.828 0 1.58-0.337 2.121-0.879s0.879-1.293 0.879-2.121v-11c-0.001-0.3-0.134-0.593-0.386-0.789l-9-7c-0.358-0.275-0.861-0.285-1.228 0zM16 21v-9c0-0.552-0.448-1-1-1h-6c-0.552 0-1 0.448-1 1v9h-3c-0.276 0-0.525-0.111-0.707-0.293s-0.293-0.431-0.293-0.707v-10.511l8-6.222 8 6.222v10.511c0 0.276-0.111 0.525-0.293 0.707s-0.431 0.293-0.707 0.293zM10 21v-8h4v8z"></path>
</symbol>
<symbol id="icon-care" viewBox="0 0 32 32">
<path d="M19.097 25.67h-2.425c-0.345 0-0.625 0.28-0.625 0.625s0.28 0.625 0.625 0.625h2.425c0.374 0 0.679 0.304 0.679 0.679s-0.304 0.679-0.679 0.679h-6.528c-0.981 0-1.904-0.433-2.531-1.187l-1.561-1.876c-0.838-1.007-2.057-1.597-3.361-1.634v-3.692h2.301c1.135 0 2.209 0.434 3.026 1.222l3.369 3.252c0.238 0.23 0.249 0.615 0.025 0.858-0.229 0.248-0.617 0.264-0.866 0.036l-2.645-2.425c-0.254-0.233-0.65-0.216-0.883 0.038s-0.216 0.65 0.038 0.883l2.645 2.425c0.357 0.327 0.808 0.488 1.258 0.488 0.503 0 1.004-0.201 1.37-0.598 0.682-0.738 0.648-1.907-0.075-2.605l-3.369-3.252c-1.051-1.014-2.433-1.573-3.894-1.573h-2.422c-0.235-0.556-0.787-0.948-1.428-0.948h-2.942c-0.345 0-0.625 0.28-0.625 0.625v4.57c0 0.345 0.28 0.625 0.625 0.625s0.625-0.28 0.625-0.625v-3.945h2.317c0.165 0 0.299 0.134 0.299 0.299v5.009c0 0.165-0.134 0.299-0.299 0.299h-0.649c-0.345 0-0.625 0.28-0.625 0.625s0.28 0.625 0.625 0.625h0.649c0.65 0 1.207-0.402 1.437-0.971 0.974 0.006 1.889 0.437 2.513 1.186l1.561 1.876c0.866 1.041 2.139 1.637 3.492 1.637h6.528c1.063 0 1.929-0.865 1.929-1.929s-0.865-1.929-1.929-1.929z"></path>
<path d="M31.375 8.246c-0.345 0-0.625 0.28-0.625 0.625v4.189h-2.317c-0.165 0-0.299-0.134-0.299-0.299v-5.009c0-0.165 0.134-0.299 0.299-0.299h0.603c0.345 0 0.625-0.28 0.625-0.625s-0.28-0.625-0.625-0.625h-0.603c-0.65 0-1.207 0.402-1.437 0.971-0.974-0.006-1.889-0.437-2.513-1.187l-1.561-1.876c-0.866-1.041-2.139-1.638-3.492-1.638h-6.528c-1.063 0-1.929 0.865-1.929 1.929s0.865 1.929 1.929 1.929h2.669c0.345 0 0.625-0.28 0.625-0.625s-0.28-0.625-0.625-0.625h-2.669c-0.374 0-0.679-0.304-0.679-0.679s0.304-0.679 0.679-0.679h6.528c0.981 0 1.904 0.433 2.532 1.187l1.561 1.876c0.838 1.007 2.057 1.597 3.361 1.634v3.692h-2.301c-1.135 0-2.209-0.434-3.026-1.222l-3.369-3.252c-0.238-0.23-0.249-0.615-0.025-0.858 0.229-0.248 0.617-0.264 0.866-0.036l2.645 2.425c0.254 0.233 0.65 0.216 0.883-0.038s0.216-0.65-0.038-0.883l-2.645-2.425c-0.755-0.692-1.934-0.643-2.629 0.11-0.682 0.739-0.648 1.907 0.075 2.605l3.369 3.252c1.051 1.014 2.433 1.573 3.894 1.573h2.422c0.235 0.556 0.787 0.948 1.428 0.948h2.942c0.345 0 0.625-0.28 0.625-0.625v-4.814c-0-0.345-0.28-0.625-0.625-0.625z"></path>
<path d="M20.177 23.728c-0.142-0.314-0.512-0.455-0.826-0.313-0.317 0.138-0.461 0.506-0.323 0.822 0.102 0.235 0.332 0.376 0.573 0.376 0.083 0 0.168-0.017 0.249-0.052 0.003-0.001 0.011-0.005 0.013-0.006 0.315-0.142 0.455-0.513 0.313-0.827z"></path>
<path d="M21.731 22.676c-0.204-0.277-0.597-0.335-0.875-0.132s-0.339 0.595-0.135 0.873c0.122 0.167 0.312 0.256 0.505 0.256 0.128 0 0.257-0.039 0.369-0.121 0.001-0.001 0.007-0.005 0.008-0.006 0.277-0.205 0.333-0.593 0.129-0.871z"></path>
<path d="M18.43 24.429c-0.071-0.337-0.402-0.552-0.738-0.482-0.337 0.067-0.556 0.393-0.492 0.73 0.057 0.299 0.319 0.508 0.613 0.508 0.039 0 0.078-0.004 0.118-0.011 0.004-0.001 0.014-0.003 0.018-0.004 0.337-0.072 0.552-0.403 0.481-0.741z"></path>
<path d="M23.036 21.316c-0.256-0.231-0.651-0.211-0.883 0.046-0.003 0.003-0.010 0.012-0.013 0.015-0.226 0.261-0.196 0.656 0.065 0.881 0.118 0.102 0.263 0.152 0.408 0.152 0.174 0 0.346-0.072 0.47-0.212 0.23-0.256 0.209-0.651-0.047-0.881zM22.687 21.843l-0.070-0.063 0.075 0.068-0.006-0.005z"></path>
<path d="M24.627 17.93c-0.33-0.1-0.68 0.088-0.78 0.419-0.102 0.33 0.084 0.68 0.413 0.781 0.061 0.019 0.123 0.028 0.184 0.028 0.267 0 0.514-0.173 0.597-0.441l0.003-0.009c0.1-0.33-0.087-0.677-0.417-0.778z"></path>
<path d="M25.427 14.704c-0.001-0.008-0.003-0.016-0.005-0.024-0.071-0.338-0.402-0.554-0.739-0.483-0.336 0.070-0.553 0.399-0.485 0.736 0.057 0.298 0.319 0.507 0.613 0.507 0.037 0 0.074-0.003 0.111-0.010 0.34-0.061 0.566-0.386 0.505-0.725z"></path>
<path d="M24.854 16.060c-0.343-0.030-0.647 0.224-0.677 0.568-0.001 0.006-0.001 0.018-0.002 0.024-0.020 0.345 0.243 0.64 0.587 0.661 0.012 0.001 0.025 0.001 0.037 0.001 0.325 0 0.599-0.252 0.623-0.579 0.029-0.343-0.225-0.644-0.568-0.674z"></path>
<path d="M24.015 19.708c-0.3-0.17-0.682-0.065-0.852 0.236l-0.009 0.016c-0.165 0.303-0.053 0.685 0.25 0.85 0.095 0.052 0.198 0.076 0.299 0.076 0.221 0 0.434-0.117 0.546-0.325l-0.543-0.309 0.544 0.308c0.17-0.3 0.065-0.682-0.236-0.852z"></path>
<path d="M12.681 7.806c-0.154-0.309-0.53-0.434-0.838-0.279l-0.006 0.003c-0.309 0.154-0.431 0.528-0.277 0.837 0.109 0.219 0.331 0.345 0.56 0.345 0.095 0 0.191-0.021 0.281-0.066 0.309-0.154 0.434-0.53 0.28-0.838z"></path>
<path d="M14.489 7.285c-0.081-0.335-0.419-0.541-0.755-0.46-0.003 0.001-0.012 0.003-0.015 0.004-0.334 0.086-0.537 0.427-0.451 0.761 0.073 0.282 0.326 0.469 0.604 0.469 0.052 0 0.104-0.006 0.156-0.020 0.335-0.081 0.541-0.419 0.46-0.755z"></path>
<path d="M11.028 8.707c-0.216-0.269-0.61-0.311-0.879-0.095l0.387 0.49-0.389-0.489c-0.27 0.215-0.315 0.608-0.1 0.878 0.123 0.155 0.306 0.236 0.489 0.236 0.136 0 0.274-0.044 0.389-0.136l0.008-0.007c0.268-0.217 0.31-0.609 0.094-0.877z"></path>
<path d="M7.696 13.154c-0.333-0.091-0.676 0.105-0.767 0.438-0.002 0.006-0.005 0.018-0.006 0.023-0.081 0.335 0.125 0.672 0.46 0.754 0.050 0.012 0.099 0.018 0.148 0.018 0.28 0 0.535-0.19 0.606-0.474 0.086-0.331-0.11-0.669-0.441-0.76z"></path>
<path d="M7.298 14.99c-0.345-0.019-0.64 0.243-0.66 0.588-0 0.008-0.001 0.016-0.001 0.024-0.010 0.345 0.261 0.632 0.606 0.642 0.006 0 0.013 0 0.019 0 0.335 0 0.612-0.266 0.624-0.602 0.016-0.341-0.246-0.632-0.588-0.652z"></path>
<path d="M8.483 11.446c-0.306-0.16-0.683-0.043-0.844 0.263l-0.010 0.020c-0.152 0.31-0.025 0.683 0.285 0.836 0.089 0.044 0.183 0.064 0.275 0.064 0.229 0 0.45-0.127 0.56-0.346 0.156-0.305 0.037-0.678-0.266-0.838z"></path>
<path d="M9.612 9.942c-0.266-0.22-0.66-0.184-0.88 0.082-0.003 0.004-0.010 0.012-0.013 0.016-0.214 0.27-0.168 0.663 0.102 0.877 0.115 0.091 0.252 0.135 0.388 0.135 0.183 0 0.365-0.080 0.489-0.234 0.216-0.265 0.179-0.656-0.085-0.876z"></path>
<path d="M8.005 17.377c-0.061-0.34-0.386-0.566-0.725-0.505s-0.566 0.386-0.505 0.725l0.001 0.006c0.054 0.302 0.316 0.512 0.613 0.512 0.037 0 0.074-0.003 0.112-0.010 0.34-0.061 0.565-0.389 0.504-0.728z"></path>
<path d="M18.146 12.633c-0.813 0-1.567 0.335-2.104 0.902-0.537-0.566-1.291-0.902-2.104-0.902-1.6 0-2.902 1.302-2.902 2.902 0 0.863 0.381 1.676 1.045 2.23 0.004 0.003 0.008 0.007 0.012 0.010l3.561 2.82c0.114 0.090 0.251 0.135 0.388 0.135s0.276-0.045 0.389-0.136l3.712-2.957c0.018-0.014 0.035-0.030 0.052-0.046 0.55-0.548 0.853-1.278 0.853-2.055 0-1.6-1.302-2.902-2.902-2.902zM19.335 16.682l-3.295 2.624-3.166-2.506c-0.375-0.315-0.59-0.776-0.59-1.265-0-0.911 0.741-1.652 1.652-1.652 0.671 0 1.27 0.401 1.527 1.020 0.097 0.233 0.325 0.386 0.577 0.386s0.48-0.152 0.577-0.386c0.257-0.62 0.856-1.020 1.527-1.020 0.911 0 1.652 0.741 1.652 1.652 0 0.431-0.164 0.837-0.463 1.147z"></path>
<path d="M1.248 25.172c0 0.344-0.279 0.623-0.623 0.623s-0.623-0.279-0.623-0.623c0-0.344 0.279-0.623 0.623-0.623s0.623 0.279 0.623 0.623z"></path>
<path d="M31.998 6.827c0 0.344-0.279 0.623-0.623 0.623s-0.623-0.279-0.623-0.623c0-0.344 0.279-0.623 0.623-0.623s0.623 0.279 0.623 0.623z"></path>
</symbol>
<symbol id="icon-message" viewBox="0 0 32 32">
<path d="M26.86 2.156h-21.751c-2.274 0-4.124 1.85-4.124 4.124v13.311c0 2.269 1.842 4.116 4.11 4.124v6.040l8.681-6.040h13.085c2.274 0 4.124-1.85 4.124-4.124v-13.311c0-2.275-1.85-4.124-4.124-4.124zM29.227 19.592c0 1.305-1.062 2.367-2.367 2.367h-13.636l-6.372 4.434v-4.434h-1.743c-1.305 0-2.367-1.062-2.367-2.367v-13.311c0-1.305 1.062-2.367 2.367-2.367h21.751c1.305 0 2.367 1.061 2.367 2.367z"></path>
<path d="M9.014 8.367h13.941v1.758h-13.941z"></path>
<path d="M9.014 12.117h13.941v1.758h-13.941z"></path>
<path d="M9.014 15.867h13.941v1.758h-13.941z"></path>
</symbol>
<symbol id="icon-more-1" viewBox="0 0 32 32">
<path d="M6.4 16c0 1.767-1.433 3.2-3.2 3.2s-3.2-1.433-3.2-3.2c0-1.767 1.433-3.2 3.2-3.2s3.2 1.433 3.2 3.2z"></path>
<path d="M19.2 16c0 1.767-1.433 3.2-3.2 3.2s-3.2-1.433-3.2-3.2c0-1.767 1.433-3.2 3.2-3.2s3.2 1.433 3.2 3.2z"></path>
<path d="M32 16c0 1.767-1.433 3.2-3.2 3.2s-3.2-1.433-3.2-3.2c0-1.767 1.433-3.2 3.2-3.2s3.2 1.433 3.2 3.2z"></path>
</symbol>
<symbol id="icon-more" viewBox="0 0 32 32">
<path d="M19.556 3.556c0 1.964-1.592 3.556-3.556 3.556s-3.556-1.592-3.556-3.556c0-1.964 1.592-3.556 3.556-3.556s3.556 1.592 3.556 3.556z"></path>
<path d="M19.556 16c0 1.964-1.592 3.556-3.556 3.556s-3.556-1.592-3.556-3.556c0-1.964 1.592-3.556 3.556-3.556s3.556 1.592 3.556 3.556z"></path>
<path d="M19.556 28.444c0 1.964-1.592 3.556-3.556 3.556s-3.556-1.592-3.556-3.556c0-1.964 1.592-3.556 3.556-3.556s3.556 1.592 3.556 3.556z"></path>
</symbol>
<symbol id="icon-refresh" viewBox="0 0 32 32">
<path d="M31.125 14.104c-0.104-0.65-0.715-1.093-1.365-0.989s-1.093 0.715-0.989 1.365c0.001 0.007 0.002 0.014 0.004 0.021 1.214 7.145-3.595 13.922-10.74 15.136s-13.922-3.595-15.136-10.74 3.595-13.922 10.74-15.136c4.394-0.746 8.867 0.788 11.877 4.076l-5.28 1.759c-0.625 0.208-0.962 0.883-0.755 1.507 0 0 0 0 0 0.001 0.208 0.625 0.883 0.962 1.507 0.755 0-0 0-0 0-0l7.152-2.384c0.487-0.162 0.815-0.618 0.815-1.131v-7.152c0-0.658-0.534-1.192-1.192-1.192s-1.192 0.534-1.192 1.192v4.354c-6.138-5.838-15.848-5.595-21.686 0.543s-5.595 15.848 0.543 21.686 15.848 5.595 21.686-0.543c3.329-3.5 4.815-8.365 4.010-13.128z"></path>
</symbol>
<symbol id="icon-review" viewBox="0 0 32 32">
<path d="M30.096 4.668h-20.554c-0.815 0-0.816 1.269 0 1.269h20.554c0.35 0 0.635 0.285 0.635 0.635v15c0 0.35-0.285 0.635-0.635 0.635h-11.114c-0.194 0-0.378 0.089-0.498 0.241l-2.56 3.244-2.716-3.257c-0.121-0.145-0.299-0.228-0.488-0.228h-10.816c-0.35 0-0.635-0.285-0.635-0.635v-15c0-0.35 0.285-0.635 0.635-0.635h2.415c0.815 0 0.816-1.269 0-1.269h-2.415c-1.050 0-1.904 0.854-1.904 1.904v15c0 1.050 0.854 1.904 1.904 1.904h10.518l3.026 3.63c0.256 0.307 0.738 0.3 0.986-0.013l2.855-3.616h10.806c1.050 0 1.904-0.854 1.904-1.904v-15c0-1.050-0.854-1.904-1.904-1.904z"></path>
<path d="M3.515 12.835c-0.067 0.207-0.024 0.434 0.115 0.601l1.236 1.492-0.123 1.934c-0.096 1.515 2.178-0.094 2.668-0.084 0.495 0.010 2.764 1.582 2.668 0.084l-0.123-1.934 1.236-1.492c0.289-0.348 0.11-0.907-0.331-1.020l-1.877-0.481-1.037-1.637c-0.242-0.382-0.829-0.385-1.072 0l-1.037 1.637-1.877 0.481c-0.211 0.054-0.379 0.212-0.446 0.419zM6.397 13.103c0.469-0.12 0.778-0.905 1.014-1.278 0.232 0.367 0.55 1.159 1.014 1.278l1.151 0.295-0.758 0.915c-0.103 0.125-0.155 0.284-0.145 0.445l0.075 1.185-1.104-0.438c-0.15-0.060-0.318-0.060-0.468 0l-1.104 0.438 0.075-1.185c0.010-0.161-0.041-0.321-0.145-0.445l-0.758-0.915z"></path>
<path d="M19.833 12.835c-0.067-0.207-0.236-0.365-0.446-0.419l-1.877-0.481-1.037-1.637c-0.242-0.382-0.829-0.385-1.072 0l-1.037 1.637-1.877 0.481c-0.211 0.054-0.379 0.212-0.446 0.419s-0.024 0.434 0.115 0.601l1.236 1.492-0.123 1.934c-0.097 1.515 2.178-0.094 2.668-0.084 0.495 0.010 2.764 1.582 2.668 0.084l-0.123-1.934 1.236-1.492c0.139-0.167 0.182-0.394 0.115-0.601zM17.344 14.312c-0.103 0.125-0.155 0.284-0.145 0.445l0.075 1.185c-0.396-0.157-0.903-0.483-1.338-0.483-0.433 0-0.943 0.326-1.338 0.483l0.075-1.185c0.010-0.161-0.041-0.321-0.145-0.445l-0.758-0.915 1.151-0.295c0.469-0.12 0.778-0.905 1.014-1.278 0.233 0.367 0.55 1.159 1.014 1.278l1.151 0.295z"></path>
<path d="M28.358 12.835c-0.067-0.207-0.236-0.365-0.446-0.419l-1.877-0.481-1.037-1.637c-0.242-0.382-0.829-0.385-1.072 0l-1.037 1.637-1.877 0.481c-0.438 0.112-0.622 0.669-0.331 1.020l1.236 1.492-0.123 1.934c-0.096 1.515 2.177-0.094 2.669-0.084 0.494 0.010 2.764 1.582 2.669 0.084l-0.123-1.934 1.236-1.492c0.139-0.167 0.182-0.394 0.115-0.601zM25.869 14.312c-0.103 0.125-0.155 0.284-0.145 0.445l0.075 1.185-1.104-0.438c-0.156-0.060-0.312-0.060-0.468 0l-1.104 0.438 0.075-1.185c0.010-0.161-0.041-0.321-0.145-0.445l-0.758-0.915 1.151-0.295c0.469-0.12 0.778-0.905 1.014-1.278 0.233 0.367 0.55 1.159 1.014 1.278l1.151 0.295z"></path>
<path d="M6.592 5.83c0.478 0.327 1.116-0.148 0.963-0.697-0.073-0.261-0.309-0.451-0.58-0.465s-0.526 0.153-0.623 0.406c-0.105 0.272-0.006 0.595 0.24 0.755z"></path>
</symbol>
<symbol id="icon-star-1" viewBox="0 0 32 32">
<path d="M31.915 12.313c-0.242-0.746-0.964-1.258-1.98-1.406l-8.282-1.204-3.704-7.504c-0.454-0.921-1.165-1.449-1.949-1.449s-1.495 0.528-1.949 1.449l-3.703 7.504-8.283 1.204c-1.016 0.148-1.738 0.66-1.98 1.406s0.041 1.585 0.776 2.301l5.993 5.842-1.415 8.249c-0.181 1.055 0.127 1.687 0.418 2.032 0.341 0.404 0.838 0.627 1.399 0.627 0.423 0 0.872-0.124 1.336-0.367l7.408-3.895 7.408 3.895c0.464 0.244 0.913 0.367 1.336 0.368h0c0.562 0 1.059-0.223 1.399-0.627 0.291-0.344 0.599-0.977 0.418-2.032l-1.415-8.249 5.993-5.841c0.735-0.717 1.018-1.556 0.776-2.302zM29.831 13.272l-6.346 6.186c-0.221 0.215-0.322 0.526-0.27 0.83l1.498 8.735c0.044 0.254 0.025 0.398 0.008 0.466-0.067-0.004-0.21-0.030-0.44-0.151l-7.844-4.124c-0.137-0.072-0.286-0.108-0.436-0.108s-0.3 0.036-0.436 0.108l-7.844 4.124c-0.23 0.121-0.374 0.147-0.441 0.151-0.017-0.067-0.036-0.212 0.008-0.466l1.498-8.734c0.052-0.304-0.049-0.615-0.27-0.83l-6.346-6.186c-0.185-0.18-0.254-0.308-0.28-0.372 0.059-0.037 0.19-0.1 0.445-0.137l8.77-1.274c0.305-0.044 0.569-0.236 0.706-0.513l3.922-7.947c0.114-0.231 0.214-0.337 0.268-0.381 0.053 0.045 0.154 0.15 0.268 0.381l3.922 7.947c0.137 0.277 0.401 0.469 0.706 0.513l8.77 1.274c0.255 0.037 0.386 0.1 0.445 0.137-0.026 0.064-0.095 0.192-0.28 0.372z"></path>
</symbol>
<symbol id="icon-star-2" viewBox="0 0 32 32">
<path d="M16.756 1.245l4.070 9.634 10.421 0.895c0.723 0.062 1.017 0.964 0.468 1.439l-7.904 6.848 2.369 10.188c0.164 0.708-0.603 1.265-1.224 0.889l-8.956-5.401-8.956 5.401c-0.623 0.375-1.388-0.182-1.224-0.889l2.369-10.188-7.906-6.85c-0.549-0.475-0.256-1.377 0.468-1.439l10.421-0.895 4.070-9.632c0.283-0.67 1.23-0.67 1.513 0z"></path>
</symbol>
<symbol id="icon-star" viewBox="0 0 32 32">
<path d="M31.412 11.391c-0.366-0.41-0.866-0.677-1.41-0.753v-0.001l-8.505-1.175-3.365-8.042c-0.491-1.177-1.844-1.733-3.021-1.242-0.561 0.234-1.007 0.68-1.242 1.242l-3.365 8.042-8.505 1.175c-1.267 0.176-2.151 1.347-1.975 2.614 0.076 0.545 0.343 1.044 0.753 1.41l6.408 5.714-1.317 8.966c-0.143 0.91 0.276 1.818 1.061 2.3 0.774 0.495 1.769 0.476 2.524-0.047l6.547-4.452 6.547 4.457c1.056 0.717 2.494 0.442 3.211-0.615 0.326-0.48 0.459-1.065 0.374-1.639l-1.317-8.97 6.408-5.714c0.955-0.851 1.039-2.315 0.188-3.27zM22.834 19.084c-0.287 0.256-0.425 0.639-0.369 1.019l1.371 9.599-7.19-4.889c-0.388-0.263-0.897-0.263-1.284 0l-7.233 4.859 1.407-9.574c0.055-0.379-0.084-0.76-0.369-1.015l-6.857-6.18 9.151-1.263c0.401-0.055 0.742-0.318 0.898-0.691l3.655-8.665c0.004 0.005 0.007 0.011 0.009 0.017l3.617 8.643c0.156 0.373 0.498 0.636 0.898 0.691l9.163 1.319-6.867 6.129z"></path>
</symbol>
<symbol id="icon-stopwatch" viewBox="0 0 32 32">
<path d="M1.947 18c-0.007-6.627 5.361-12.005 11.988-12.012 4.852-0.005 9.229 2.912 11.092 7.392l1.85-0.77c-1.9-4.547-6.052-7.76-10.93-8.46v-2.15h1c1.105 0 2-0.895 2-2l-8 0.060c-0.002-0.020-0.002-0.040 0-0.060h-2c0 1.105 0.895 2 2 2h1v2.16c-7.644 1.164-12.897 8.304-11.733 15.948 1.035 6.799 6.856 11.839 13.733 11.892v-2c-6.627 0-12-5.373-12-12z"></path>
<path d="M14.947 11h-2v7c-0.002 0.266 0.103 0.521 0.29 0.71l1 1 1.41-1.41-0.7-0.71v-6.59z"></path>
<path d="M23.947 16c-4.418 0-8 3.582-8 8s3.582 8 8 8 8-3.582 8-8-3.582-8-8-8zM23.947 30c-3.314 0-6-2.686-6-6s2.686-6 6-6 6 2.686 6 6-2.686 6-6 6z"></path>
<path d="M22.947 24.59l-1.29-1.29-1.41 1.41 2 2c0.39 0.388 1.020 0.388 1.41 0l4-4-1.41-1.41-3.3 3.29z"></path>
</symbol>
<symbol id="icon-timer" viewBox="0 0 32 32">
<path d="M20.75 5.723v-1.911h1.875v-1.875h-5.625v1.875h1.875v1.911c-3.074 0.235-5.832 1.616-7.848 3.714h-7.277v1.874h5.797c-0.38 0.593-0.709 1.22-0.984 1.876h-6.688v1.874h6.078c-0.144 0.609-0.244 1.236-0.292 1.876h-7.661v1.875h7.661c0.049 0.64 0.148 1.266 0.292 1.875h-6.078v1.875h6.688c0.274 0.656 0.604 1.283 0.984 1.875h-5.797v1.875h7.276c2.219 2.31 5.337 3.75 8.786 3.75 6.72 0 12.188-5.467 12.188-12.188 0-6.405-4.966-11.671-11.25-12.152zM30.082 18.813c-0.447 4.94-4.392 8.885-9.332 9.332v-1.832h-1.875v1.832c-4.94-0.447-8.885-4.392-9.332-9.332h1.832v-1.875h-1.832c0.447-4.94 4.392-8.885 9.332-9.332v1.832h1.875v-1.832c4.94 0.447 8.885 4.392 9.332 9.332h-1.832v1.875z"></path>
<path d="M17 17.875c0 1.551 1.262 2.813 2.813 2.813 1.104 0 2.11-0.65 2.564-1.656l3.060-6.781-6.781 3.060c-1.006 0.454-1.656 1.461-1.656 2.564zM19.428 17.020l2.26-1.020-1.020 2.26c-0.151 0.336-0.487 0.553-0.855 0.553-0.517 0-0.938-0.421-0.938-0.938 0-0.368 0.217-0.704 0.553-0.855z"></path>
</symbol>
<symbol id="icon-turn-off" viewBox="0 0 32 32">
<path d="M20.917 0h-9.833c-6.111 0-11.083 4.972-11.083 11.083v9.833c0 6.111 4.972 11.083 11.083 11.083h9.833c6.111 0 11.083-4.972 11.083-11.083v-9.833c0-6.111-4.972-11.083-11.083-11.083zM29.5 20.917c0 4.733-3.85 8.583-8.583 8.583h-9.833c-4.733 0-8.583-3.85-8.583-8.583v-9.833c0-4.733 3.85-8.583 8.583-8.583h9.833c4.733 0 8.583 3.85 8.583 8.583zM27.083 16c0 6.111-4.972 11.083-11.083 11.083s-11.083-4.972-11.083-11.083c0-4.080 2.211-7.674 5.541-9.6 0.598-0.346 1.362-0.141 1.708 0.456s0.142 1.362-0.456 1.708c-2.648 1.532-4.292 4.381-4.292 7.436 0 4.733 3.85 8.583 8.583 8.583s8.583-3.85 8.583-8.583c0-3.055-1.645-5.904-4.293-7.436-0.598-0.346-0.802-1.11-0.456-1.708s1.11-0.802 1.708-0.456c3.327 1.925 5.541 5.517 5.541 9.6zM14.75 16v-9.833c0-0.69 0.56-1.25 1.25-1.25s1.25 0.56 1.25 1.25v9.833c0 0.69-0.56 1.25-1.25 1.25s-1.25-0.56-1.25-1.25z"></path>
</symbol>
</defs>
</svg>
